solid OpenSCAD_Model
  facet normal -1 0 0
    outer loop
      vertex 0 0 0
      vertex 0 50 2
      vertex 0 50 0
    endloop
  endfacet
  facet normal -1 -0 0
    outer loop
      vertex 0 50 2
      vertex 0 0 0
      vertex 0 0 2
    endloop
  endfacet
  facet normal -0 0 1
    outer loop
      vertex 21.9842 20.2507 2
      vertex 50 0 2
      vertex 50 50 2
    endloop
  endfacet
  facet normal 0 0 1
    outer loop
      vertex 50 0 2
      vertex 22 20 2
      vertex 23.95 10 2
    endloop
  endfacet
  facet normal 0 0 1
    outer loop
      vertex 50 0 2
      vertex 21.9842 20.2507 2
      vertex 22 20 2
    endloop
  endfacet
  facet normal 0 0 1
    outer loop
      vertex 50 50 2
      vertex 21.9372 20.4974 2
      vertex 21.9842 20.2507 2
    endloop
  endfacet
  facet normal 0 0 1
    outer loop
      vertex 50 50 2
      vertex 21.8596 20.7362 2
      vertex 21.9372 20.4974 2
    endloop
  endfacet
  facet normal 0 0 1
    outer loop
      vertex 50 50 2
      vertex 21.7526 20.9635 2
      vertex 21.8596 20.7362 2
    endloop
  endfacet
  facet normal 0 0 1
    outer loop
      vertex 50 50 2
      vertex 21.618 21.1756 2
      vertex 21.7526 20.9635 2
    endloop
  endfacet
  facet normal 0 0 1
    outer loop
      vertex 50 50 2
      vertex 21.4579 21.3691 2
      vertex 21.618 21.1756 2
    endloop
  endfacet
  facet normal 0 0 1
    outer loop
      vertex 50 50 2
      vertex 21.2748 21.541 2
      vertex 21.4579 21.3691 2
    endloop
  endfacet
  facet normal 0 0 1
    outer loop
      vertex 50 50 2
      vertex 21.0717 21.6887 2
      vertex 21.2748 21.541 2
    endloop
  endfacet
  facet normal 0 0 1
    outer loop
      vertex 50 50 2
      vertex 20.8516 21.8097 2
      vertex 21.0717 21.6887 2
    endloop
  endfacet
  facet normal 0 0 1
    outer loop
      vertex 50 50 2
      vertex 20.618 21.9021 2
      vertex 20.8516 21.8097 2
    endloop
  endfacet
  facet normal 0 0 1
    outer loop
      vertex 50 50 2
      vertex 20.3748 21.9646 2
      vertex 20.618 21.9021 2
    endloop
  endfacet
  facet normal -0 0 1
    outer loop
      vertex 0 50 2
      vertex 20.3748 21.9646 2
      vertex 50 50 2
    endloop
  endfacet
  facet normal 0 0 1
    outer loop
      vertex 20.3748 21.9646 2
      vertex 0 50 2
      vertex 20.1256 21.9961 2
    endloop
  endfacet
  facet normal 0 0 1
    outer loop
      vertex 20.1256 21.9961 2
      vertex 0 50 2
      vertex 19.8744 21.9961 2
    endloop
  endfacet
  facet normal 0 0 1
    outer loop
      vertex 19.8744 21.9961 2
      vertex 0 50 2
      vertex 19.6252 21.9646 2
    endloop
  endfacet
  facet normal 0 0 1
    outer loop
      vertex 19.6252 21.9646 2
      vertex 0 50 2
      vertex 19.382 21.9021 2
    endloop
  endfacet
  facet normal 0 -0 1
    outer loop
      vertex 10.3092 21.6208 2
      vertex 19.382 21.9021 2
      vertex 0 50 2
    endloop
  endfacet
  facet normal 0 -0 1
    outer loop
      vertex 10.5099 21.5692 2
      vertex 19.382 21.9021 2
      vertex 10.3092 21.6208 2
    endloop
  endfacet
  facet normal 0 0 1
    outer loop
      vertex 11.65 20 2
      vertex 18 20 2
      vertex 18.0158 20.2507 2
    endloop
  endfacet
  facet normal -0 0 1
    outer loop
      vertex 11.5982 20.4103 2
      vertex 18.0158 20.2507 2
      vertex 18.0628 20.4974 2
    endloop
  endfacet
  facet normal 0 0 1
    outer loop
      vertex 18 20 2
      vertex 11.55 12.6847 2
      vertex 16.05 10 2
    endloop
  endfacet
  facet normal -0 0 1
    outer loop
      vertex 11.5341 20.6074 2
      vertex 18.0628 20.4974 2
      vertex 18.1404 20.7362 2
    endloop
  endfacet
  facet normal 0 0 1
    outer loop
      vertex 18 20 2
      vertex 11.65 20 2
      vertex 11.637 19.7932 2
    endloop
  endfacet
  facet normal -0 0 1
    outer loop
      vertex 11.4459 20.7949 2
      vertex 18.1404 20.7362 2
      vertex 18.2474 20.9635 2
    endloop
  endfacet
  facet normal -0 0 1
    outer loop
      vertex 11.3349 20.9698 2
      vertex 18.2474 20.9635 2
      vertex 18.382 21.1756 2
    endloop
  endfacet
  facet normal 0 0 1
    outer loop
      vertex 11.2028 21.1295 2
      vertex 18.382 21.1756 2
      vertex 18.5421 21.3691 2
    endloop
  endfacet
  facet normal 0 0 1
    outer loop
      vertex 11.0517 21.2713 2
      vertex 18.5421 21.3691 2
      vertex 18.7252 21.541 2
    endloop
  endfacet
  facet normal 0 0 1
    outer loop
      vertex 19.382 21.9021 2
      vertex 10.5099 21.5692 2
      vertex 19.1484 21.8097 2
    endloop
  endfacet
  facet normal 0 0 1
    outer loop
      vertex 18.0158 20.2507 2
      vertex 11.637 20.2068 2
      vertex 11.65 20 2
    endloop
  endfacet
  facet normal 0 0 1
    outer loop
      vertex 18.0158 20.2507 2
      vertex 11.5982 20.4103 2
      vertex 11.637 20.2068 2
    endloop
  endfacet
  facet normal 0 0 1
    outer loop
      vertex 18.0628 20.4974 2
      vertex 11.5341 20.6074 2
      vertex 11.5982 20.4103 2
    endloop
  endfacet
  facet normal 0 0 1
    outer loop
      vertex 18.1404 20.7362 2
      vertex 11.4459 20.7949 2
      vertex 11.5341 20.6074 2
    endloop
  endfacet
  facet normal 0 0 1
    outer loop
      vertex 18.2474 20.9635 2
      vertex 11.3349 20.9698 2
      vertex 11.4459 20.7949 2
    endloop
  endfacet
  facet normal 0 0 1
    outer loop
      vertex 18.382 21.1756 2
      vertex 11.2028 21.1295 2
      vertex 11.3349 20.9698 2
    endloop
  endfacet
  facet normal 0 0 1
    outer loop
      vertex 18.5421 21.3691 2
      vertex 11.0517 21.2713 2
      vertex 11.2028 21.1295 2
    endloop
  endfacet
  facet normal 0 0 1
    outer loop
      vertex 18.7252 21.541 2
      vertex 10.8841 21.3931 2
      vertex 11.0517 21.2713 2
    endloop
  endfacet
  facet normal 0 -0 1
    outer loop
      vertex 10.7025 21.493 2
      vertex 19.1484 21.8097 2
      vertex 10.5099 21.5692 2
    endloop
  endfacet
  facet normal 0 0 1
    outer loop
      vertex 18.9283 21.6887 2
      vertex 10.8841 21.3931 2
      vertex 18.7252 21.541 2
    endloop
  endfacet
  facet normal 0 -0 1
    outer loop
      vertex 10.8841 21.3931 2
      vertex 18.9283 21.6887 2
      vertex 10.7025 21.493 2
    endloop
  endfacet
  facet normal 0 0 1
    outer loop
      vertex 19.1484 21.8097 2
      vertex 10.7025 21.493 2
      vertex 18.9283 21.6887 2
    endloop
  endfacet
  facet normal 0 0 1
    outer loop
      vertex 10.3092 21.6208 2
      vertex 0 50 2
      vertex 10.1036 21.6467 2
    endloop
  endfacet
  facet normal 0 0 1
    outer loop
      vertex 10.1036 21.6467 2
      vertex 0 50 2
      vertex 9.89639 21.6467 2
    endloop
  endfacet
  facet normal 0 0 1
    outer loop
      vertex 9.89639 21.6467 2
      vertex 0 50 2
      vertex 9.69082 21.6208 2
    endloop
  endfacet
  facet normal 0 0 1
    outer loop
      vertex 9.69082 21.6208 2
      vertex 0 50 2
      vertex 9.49012 21.5692 2
    endloop
  endfacet
  facet normal 0 0 1
    outer loop
      vertex 9.49012 21.5692 2
      vertex 0 50 2
      vertex 9.29746 21.493 2
    endloop
  endfacet
  facet normal 0 0 1
    outer loop
      vertex 0 0 2
      vertex 8.35 20 2
      vertex 8.36301 20.2068 2
    endloop
  endfacet
  facet normal 0 0 1
    outer loop
      vertex 0 0 2
      vertex 8.36301 20.2068 2
      vertex 0 50 2
    endloop
  endfacet
  facet normal 0 0 1
    outer loop
      vertex 8.40184 20.4103 2
      vertex 0 50 2
      vertex 8.36301 20.2068 2
    endloop
  endfacet
  facet normal 0 0 1
    outer loop
      vertex 8.46587 20.6074 2
      vertex 0 50 2
      vertex 8.40184 20.4103 2
    endloop
  endfacet
  facet normal 0 0 1
    outer loop
      vertex 8.55409 20.7949 2
      vertex 0 50 2
      vertex 8.46587 20.6074 2
    endloop
  endfacet
  facet normal 0 0 1
    outer loop
      vertex 8.66512 20.9698 2
      vertex 0 50 2
      vertex 8.55409 20.7949 2
    endloop
  endfacet
  facet normal 0 0 1
    outer loop
      vertex 8.7972 21.1295 2
      vertex 0 50 2
      vertex 8.66512 20.9698 2
    endloop
  endfacet
  facet normal 0 0 1
    outer loop
      vertex 8.94825 21.2713 2
      vertex 0 50 2
      vertex 8.7972 21.1295 2
    endloop
  endfacet
  facet normal 0 0 1
    outer loop
      vertex 9.11589 21.3931 2
      vertex 0 50 2
      vertex 8.94825 21.2713 2
    endloop
  endfacet
  facet normal 0 0 1
    outer loop
      vertex 9.29746 21.493 2
      vertex 0 50 2
      vertex 9.11589 21.3931 2
    endloop
  endfacet
  facet normal -0 0 1
    outer loop
      vertex 21.975 6.5792 2
      vertex 50 0 2
      vertex 23.95 10 2
    endloop
  endfacet
  facet normal 0 0 1
    outer loop
      vertex 0 0 2
      vertex 21.975 6.5792 2
      vertex 18.025 6.5792 2
    endloop
  endfacet
  facet normal 0 0 1
    outer loop
      vertex 11.55 7.31532 2
      vertex 16.05 10 2
      vertex 13.1 10 2
    endloop
  endfacet
  facet normal 0 0 1
    outer loop
      vertex 16.05 10 2
      vertex 11.55 7.31532 2
      vertex 18.025 6.5792 2
    endloop
  endfacet
  facet normal 0 0 1
    outer loop
      vertex 0 0 2
      vertex 18.025 6.5792 2
      vertex 11.55 7.31532 2
    endloop
  endfacet
  facet normal 0 0 1
    outer loop
      vertex 0 0 2
      vertex 11.55 7.31532 2
      vertex 8.45 7.31532 2
    endloop
  endfacet
  facet normal 0 0 1
    outer loop
      vertex 21.975 6.5792 2
      vertex 0 0 2
      vertex 50 0 2
    endloop
  endfacet
  facet normal 0 0 1
    outer loop
      vertex 6.9 10 2
      vertex 0 0 2
      vertex 8.45 7.31532 2
    endloop
  endfacet
  facet normal 0 0 1
    outer loop
      vertex 8.35 20 2
      vertex 0 0 2
      vertex 6.9 10 2
    endloop
  endfacet
  facet normal -0 0 1
    outer loop
      vertex 21.9842 19.7493 2
      vertex 23.95 10 2
      vertex 22 20 2
    endloop
  endfacet
  facet normal -0 0 1
    outer loop
      vertex 21.9372 19.5026 2
      vertex 23.95 10 2
      vertex 21.9842 19.7493 2
    endloop
  endfacet
  facet normal 0 0 1
    outer loop
      vertex 23.95 10 2
      vertex 21.9372 19.5026 2
      vertex 21.975 13.4208 2
    endloop
  endfacet
  facet normal -0 0 1
    outer loop
      vertex 21.8596 19.2638 2
      vertex 21.975 13.4208 2
      vertex 21.9372 19.5026 2
    endloop
  endfacet
  facet normal -0 0 1
    outer loop
      vertex 21.7526 19.0365 2
      vertex 21.975 13.4208 2
      vertex 21.8596 19.2638 2
    endloop
  endfacet
  facet normal -0 0 1
    outer loop
      vertex 21.618 18.8244 2
      vertex 21.975 13.4208 2
      vertex 21.7526 19.0365 2
    endloop
  endfacet
  facet normal -0 0 1
    outer loop
      vertex 21.4579 18.6309 2
      vertex 21.975 13.4208 2
      vertex 21.618 18.8244 2
    endloop
  endfacet
  facet normal -0 0 1
    outer loop
      vertex 21.2748 18.459 2
      vertex 21.975 13.4208 2
      vertex 21.4579 18.6309 2
    endloop
  endfacet
  facet normal -0 0 1
    outer loop
      vertex 21.0717 18.3113 2
      vertex 21.975 13.4208 2
      vertex 21.2748 18.459 2
    endloop
  endfacet
  facet normal -0 0 1
    outer loop
      vertex 20.8516 18.1903 2
      vertex 21.975 13.4208 2
      vertex 21.0717 18.3113 2
    endloop
  endfacet
  facet normal -0 0 1
    outer loop
      vertex 20.618 18.0979 2
      vertex 21.975 13.4208 2
      vertex 20.8516 18.1903 2
    endloop
  endfacet
  facet normal -0 0 1
    outer loop
      vertex 20.3748 18.0354 2
      vertex 21.975 13.4208 2
      vertex 20.618 18.0979 2
    endloop
  endfacet
  facet normal -0 0 1
    outer loop
      vertex 20.1256 18.0039 2
      vertex 21.975 13.4208 2
      vertex 20.3748 18.0354 2
    endloop
  endfacet
  facet normal -0 0 1
    outer loop
      vertex 19.8744 18.0039 2
      vertex 21.975 13.4208 2
      vertex 20.1256 18.0039 2
    endloop
  endfacet
  facet normal 0 0 1
    outer loop
      vertex 18.025 13.4208 2
      vertex 19.8744 18.0039 2
      vertex 19.6252 18.0354 2
    endloop
  endfacet
  facet normal 0 0 1
    outer loop
      vertex 18.025 13.4208 2
      vertex 19.6252 18.0354 2
      vertex 19.382 18.0979 2
    endloop
  endfacet
  facet normal 0 0 1
    outer loop
      vertex 18.025 13.4208 2
      vertex 19.382 18.0979 2
      vertex 19.1484 18.1903 2
    endloop
  endfacet
  facet normal 0 0 1
    outer loop
      vertex 18.025 13.4208 2
      vertex 19.1484 18.1903 2
      vertex 18.9283 18.3113 2
    endloop
  endfacet
  facet normal 0 0 1
    outer loop
      vertex 18.025 13.4208 2
      vertex 18.9283 18.3113 2
      vertex 18.7252 18.459 2
    endloop
  endfacet
  facet normal 0 0 1
    outer loop
      vertex 18.025 13.4208 2
      vertex 18.7252 18.459 2
      vertex 18.5421 18.6309 2
    endloop
  endfacet
  facet normal 0 0 1
    outer loop
      vertex 18.025 13.4208 2
      vertex 18.5421 18.6309 2
      vertex 18.382 18.8244 2
    endloop
  endfacet
  facet normal 0 0 1
    outer loop
      vertex 19.8744 18.0039 2
      vertex 18.025 13.4208 2
      vertex 21.975 13.4208 2
    endloop
  endfacet
  facet normal 0 0 1
    outer loop
      vertex 18.2474 19.0365 2
      vertex 18.025 13.4208 2
      vertex 18.382 18.8244 2
    endloop
  endfacet
  facet normal 0 0 1
    outer loop
      vertex 18.1404 19.2638 2
      vertex 18.025 13.4208 2
      vertex 18.2474 19.0365 2
    endloop
  endfacet
  facet normal 0 0 1
    outer loop
      vertex 18.0628 19.5026 2
      vertex 18.025 13.4208 2
      vertex 18.1404 19.2638 2
    endloop
  endfacet
  facet normal 0 0 1
    outer loop
      vertex 16.05 10 2
      vertex 18.0628 19.5026 2
      vertex 18.0158 19.7493 2
    endloop
  endfacet
  facet normal 0 0 1
    outer loop
      vertex 16.05 10 2
      vertex 18.0158 19.7493 2
      vertex 18 20 2
    endloop
  endfacet
  facet normal 0 0 1
    outer loop
      vertex 18.0628 19.5026 2
      vertex 16.05 10 2
      vertex 18.025 13.4208 2
    endloop
  endfacet
  facet normal 0 0 1
    outer loop
      vertex 18 20 2
      vertex 11.637 19.7932 2
      vertex 11.5982 19.5897 2
    endloop
  endfacet
  facet normal 0 0 1
    outer loop
      vertex 18 20 2
      vertex 11.5982 19.5897 2
      vertex 11.5341 19.3926 2
    endloop
  endfacet
  facet normal 0 0 1
    outer loop
      vertex 18 20 2
      vertex 11.5341 19.3926 2
      vertex 11.4459 19.2051 2
    endloop
  endfacet
  facet normal 0 0 1
    outer loop
      vertex 16.05 10 2
      vertex 11.55 12.6847 2
      vertex 13.1 10 2
    endloop
  endfacet
  facet normal 0 0 1
    outer loop
      vertex 18 20 2
      vertex 11.4459 19.2051 2
      vertex 11.3349 19.0302 2
    endloop
  endfacet
  facet normal 0 0 1
    outer loop
      vertex 18 20 2
      vertex 11.3349 19.0302 2
      vertex 11.55 12.6847 2
    endloop
  endfacet
  facet normal -0 0 1
    outer loop
      vertex 11.2028 18.8705 2
      vertex 11.55 12.6847 2
      vertex 11.3349 19.0302 2
    endloop
  endfacet
  facet normal -0 0 1
    outer loop
      vertex 11.0517 18.7287 2
      vertex 11.55 12.6847 2
      vertex 11.2028 18.8705 2
    endloop
  endfacet
  facet normal -0 0 1
    outer loop
      vertex 10.8841 18.6069 2
      vertex 11.55 12.6847 2
      vertex 11.0517 18.7287 2
    endloop
  endfacet
  facet normal -0 0 1
    outer loop
      vertex 10.7025 18.507 2
      vertex 11.55 12.6847 2
      vertex 10.8841 18.6069 2
    endloop
  endfacet
  facet normal -0 0 1
    outer loop
      vertex 10.5099 18.4308 2
      vertex 11.55 12.6847 2
      vertex 10.7025 18.507 2
    endloop
  endfacet
  facet normal -0 0 1
    outer loop
      vertex 10.3092 18.3792 2
      vertex 11.55 12.6847 2
      vertex 10.5099 18.4308 2
    endloop
  endfacet
  facet normal -0 0 1
    outer loop
      vertex 10.1036 18.3533 2
      vertex 11.55 12.6847 2
      vertex 10.3092 18.3792 2
    endloop
  endfacet
  facet normal -0 0 1
    outer loop
      vertex 9.89639 18.3533 2
      vertex 11.55 12.6847 2
      vertex 10.1036 18.3533 2
    endloop
  endfacet
  facet normal 0 0 1
    outer loop
      vertex 8.45 12.6847 2
      vertex 9.89639 18.3533 2
      vertex 9.69082 18.3792 2
    endloop
  endfacet
  facet normal 0 0 1
    outer loop
      vertex 8.45 12.6847 2
      vertex 9.69082 18.3792 2
      vertex 9.49012 18.4308 2
    endloop
  endfacet
  facet normal 0 0 1
    outer loop
      vertex 8.45 12.6847 2
      vertex 9.49012 18.4308 2
      vertex 9.29746 18.507 2
    endloop
  endfacet
  facet normal 0 0 1
    outer loop
      vertex 8.45 12.6847 2
      vertex 9.29746 18.507 2
      vertex 9.11589 18.6069 2
    endloop
  endfacet
  facet normal 0 0 1
    outer loop
      vertex 8.45 12.6847 2
      vertex 9.11589 18.6069 2
      vertex 8.94825 18.7287 2
    endloop
  endfacet
  facet normal 0 0 1
    outer loop
      vertex 8.45 12.6847 2
      vertex 8.94825 18.7287 2
      vertex 8.7972 18.8705 2
    endloop
  endfacet
  facet normal 0 0 1
    outer loop
      vertex 8.45 12.6847 2
      vertex 8.7972 18.8705 2
      vertex 8.66512 19.0302 2
    endloop
  endfacet
  facet normal 0 0 1
    outer loop
      vertex 8.45 12.6847 2
      vertex 8.66512 19.0302 2
      vertex 8.55409 19.2051 2
    endloop
  endfacet
  facet normal 0 0 1
    outer loop
      vertex 8.45 12.6847 2
      vertex 8.55409 19.2051 2
      vertex 8.46587 19.3926 2
    endloop
  endfacet
  facet normal 0 0 1
    outer loop
      vertex 9.89639 18.3533 2
      vertex 8.45 12.6847 2
      vertex 11.55 12.6847 2
    endloop
  endfacet
  facet normal 0 0 1
    outer loop
      vertex 6.9 10 2
      vertex 8.46587 19.3926 2
      vertex 8.40184 19.5897 2
    endloop
  endfacet
  facet normal 0 0 1
    outer loop
      vertex 6.9 10 2
      vertex 8.40184 19.5897 2
      vertex 8.36301 19.7932 2
    endloop
  endfacet
  facet normal 0 0 1
    outer loop
      vertex 6.9 10 2
      vertex 8.36301 19.7932 2
      vertex 8.35 20 2
    endloop
  endfacet
  facet normal 0 0 1
    outer loop
      vertex 8.46587 19.3926 2
      vertex 6.9 10 2
      vertex 8.45 12.6847 2
    endloop
  endfacet
  facet normal 1 -0 0
    outer loop
      vertex 50 0 2
      vertex 50 50 0
      vertex 50 50 2
    endloop
  endfacet
  facet normal 1 0 0
    outer loop
      vertex 50 50 0
      vertex 50 0 2
      vertex 50 0 0
    endloop
  endfacet
  facet normal 0 1 -0
    outer loop
      vertex 50 50 0
      vertex 0 50 2
      vertex 50 50 2
    endloop
  endfacet
  facet normal 0 1 0
    outer loop
      vertex 0 50 2
      vertex 50 50 0
      vertex 0 50 0
    endloop
  endfacet
  facet normal 0 0 -1
    outer loop
      vertex 18.0158 19.7493 0
      vertex 11.637 19.7932 0
      vertex 11.65 20 0
    endloop
  endfacet
  facet normal 0 0 -1
    outer loop
      vertex 18.025 13.4208 0
      vertex 11.5982 19.5897 0
      vertex 11.637 19.7932 0
    endloop
  endfacet
  facet normal 0 0 -1
    outer loop
      vertex 11.2028 18.8705 0
      vertex 18.025 13.4208 0
      vertex 11.55 12.6847 0
    endloop
  endfacet
  facet normal 0 0 -1
    outer loop
      vertex 18.025 13.4208 0
      vertex 11.5341 19.3926 0
      vertex 11.5982 19.5897 0
    endloop
  endfacet
  facet normal 0 0 -1
    outer loop
      vertex 18.025 13.4208 0
      vertex 11.4459 19.2051 0
      vertex 11.5341 19.3926 0
    endloop
  endfacet
  facet normal 0 0 -1
    outer loop
      vertex 18.025 13.4208 0
      vertex 11.3349 19.0302 0
      vertex 11.4459 19.2051 0
    endloop
  endfacet
  facet normal 0 0 -1
    outer loop
      vertex 18.025 13.4208 0
      vertex 11.2028 18.8705 0
      vertex 11.3349 19.0302 0
    endloop
  endfacet
  facet normal 0 0 -1
    outer loop
      vertex 11.55 12.6847 0
      vertex 11.0517 18.7287 0
      vertex 11.2028 18.8705 0
    endloop
  endfacet
  facet normal 0 0 -1
    outer loop
      vertex 11.55 12.6847 0
      vertex 10.8841 18.6069 0
      vertex 11.0517 18.7287 0
    endloop
  endfacet
  facet normal 0 0 -1
    outer loop
      vertex 11.55 12.6847 0
      vertex 10.7025 18.507 0
      vertex 10.8841 18.6069 0
    endloop
  endfacet
  facet normal 0 0 -1
    outer loop
      vertex 11.55 12.6847 0
      vertex 10.5099 18.4308 0
      vertex 10.7025 18.507 0
    endloop
  endfacet
  facet normal 0 0 -1
    outer loop
      vertex 11.55 12.6847 0
      vertex 10.3092 18.3792 0
      vertex 10.5099 18.4308 0
    endloop
  endfacet
  facet normal 0 0 -1
    outer loop
      vertex 11.55 12.6847 0
      vertex 10.1036 18.3533 0
      vertex 10.3092 18.3792 0
    endloop
  endfacet
  facet normal 0 0 -1
    outer loop
      vertex 11.55 12.6847 0
      vertex 9.89639 18.3533 0
      vertex 10.1036 18.3533 0
    endloop
  endfacet
  facet normal 0 0 -1
    outer loop
      vertex 8.45 12.6847 0
      vertex 9.89639 18.3533 0
      vertex 11.55 12.6847 0
    endloop
  endfacet
  facet normal -0 0 -1
    outer loop
      vertex 9.89639 18.3533 0
      vertex 8.45 12.6847 0
      vertex 9.69082 18.3792 0
    endloop
  endfacet
  facet normal -0 0 -1
    outer loop
      vertex 9.69082 18.3792 0
      vertex 8.45 12.6847 0
      vertex 9.49012 18.4308 0
    endloop
  endfacet
  facet normal -0 0 -1
    outer loop
      vertex 9.49012 18.4308 0
      vertex 8.45 12.6847 0
      vertex 9.29746 18.507 0
    endloop
  endfacet
  facet normal -0 0 -1
    outer loop
      vertex 9.29746 18.507 0
      vertex 8.45 12.6847 0
      vertex 9.11589 18.6069 0
    endloop
  endfacet
  facet normal -0 0 -1
    outer loop
      vertex 9.11589 18.6069 0
      vertex 8.45 12.6847 0
      vertex 8.94825 18.7287 0
    endloop
  endfacet
  facet normal -0 0 -1
    outer loop
      vertex 8.94825 18.7287 0
      vertex 8.45 12.6847 0
      vertex 8.7972 18.8705 0
    endloop
  endfacet
  facet normal -0 0 -1
    outer loop
      vertex 8.7972 18.8705 0
      vertex 8.45 12.6847 0
      vertex 8.66512 19.0302 0
    endloop
  endfacet
  facet normal -0 0 -1
    outer loop
      vertex 8.66512 19.0302 0
      vertex 8.45 12.6847 0
      vertex 8.55409 19.2051 0
    endloop
  endfacet
  facet normal -0 0 -1
    outer loop
      vertex 8.55409 19.2051 0
      vertex 8.45 12.6847 0
      vertex 8.46587 19.3926 0
    endloop
  endfacet
  facet normal 0 0 -1
    outer loop
      vertex 6.9 10 0
      vertex 8.46587 19.3926 0
      vertex 8.45 12.6847 0
    endloop
  endfacet
  facet normal -0 0 -1
    outer loop
      vertex 8.46587 19.3926 0
      vertex 6.9 10 0
      vertex 8.40184 19.5897 0
    endloop
  endfacet
  facet normal -0 0 -1
    outer loop
      vertex 8.40184 19.5897 0
      vertex 6.9 10 0
      vertex 8.36301 19.7932 0
    endloop
  endfacet
  facet normal -0 0 -1
    outer loop
      vertex 8.36301 19.7932 0
      vertex 6.9 10 0
      vertex 8.35 20 0
    endloop
  endfacet
  facet normal 0 0 -1
    outer loop
      vertex 23.95 10 0
      vertex 21.9842 19.7493 0
      vertex 22 20 0
    endloop
  endfacet
  facet normal 0 0 -1
    outer loop
      vertex 21.9372 19.5026 0
      vertex 23.95 10 0
      vertex 21.975 13.4208 0
    endloop
  endfacet
  facet normal 0 0 -1
    outer loop
      vertex 23.95 10 0
      vertex 21.9372 19.5026 0
      vertex 21.9842 19.7493 0
    endloop
  endfacet
  facet normal 0 0 -1
    outer loop
      vertex 21.975 13.4208 0
      vertex 21.8596 19.2638 0
      vertex 21.9372 19.5026 0
    endloop
  endfacet
  facet normal 0 0 -1
    outer loop
      vertex 21.975 13.4208 0
      vertex 21.7526 19.0365 0
      vertex 21.8596 19.2638 0
    endloop
  endfacet
  facet normal 0 0 -1
    outer loop
      vertex 21.975 13.4208 0
      vertex 21.618 18.8244 0
      vertex 21.7526 19.0365 0
    endloop
  endfacet
  facet normal 0 0 -1
    outer loop
      vertex 21.975 13.4208 0
      vertex 21.4579 18.6309 0
      vertex 21.618 18.8244 0
    endloop
  endfacet
  facet normal 0 0 -1
    outer loop
      vertex 21.975 13.4208 0
      vertex 21.2748 18.459 0
      vertex 21.4579 18.6309 0
    endloop
  endfacet
  facet normal 0 0 -1
    outer loop
      vertex 21.975 13.4208 0
      vertex 21.0717 18.3113 0
      vertex 21.2748 18.459 0
    endloop
  endfacet
  facet normal 0 0 -1
    outer loop
      vertex 21.975 13.4208 0
      vertex 20.8516 18.1903 0
      vertex 21.0717 18.3113 0
    endloop
  endfacet
  facet normal 0 0 -1
    outer loop
      vertex 21.975 13.4208 0
      vertex 20.618 18.0979 0
      vertex 20.8516 18.1903 0
    endloop
  endfacet
  facet normal 0 0 -1
    outer loop
      vertex 21.975 13.4208 0
      vertex 20.3748 18.0354 0
      vertex 20.618 18.0979 0
    endloop
  endfacet
  facet normal 0 0 -1
    outer loop
      vertex 21.975 13.4208 0
      vertex 20.1256 18.0039 0
      vertex 20.3748 18.0354 0
    endloop
  endfacet
  facet normal 0 0 -1
    outer loop
      vertex 21.975 13.4208 0
      vertex 19.8744 18.0039 0
      vertex 20.1256 18.0039 0
    endloop
  endfacet
  facet normal 0 0 -1
    outer loop
      vertex 18.025 13.4208 0
      vertex 19.8744 18.0039 0
      vertex 21.975 13.4208 0
    endloop
  endfacet
  facet normal -0 0 -1
    outer loop
      vertex 19.8744 18.0039 0
      vertex 18.025 13.4208 0
      vertex 19.6252 18.0354 0
    endloop
  endfacet
  facet normal -0 0 -1
    outer loop
      vertex 19.6252 18.0354 0
      vertex 18.025 13.4208 0
      vertex 19.382 18.0979 0
    endloop
  endfacet
  facet normal -0 0 -1
    outer loop
      vertex 19.382 18.0979 0
      vertex 18.025 13.4208 0
      vertex 19.1484 18.1903 0
    endloop
  endfacet
  facet normal -0 0 -1
    outer loop
      vertex 19.1484 18.1903 0
      vertex 18.025 13.4208 0
      vertex 18.9283 18.3113 0
    endloop
  endfacet
  facet normal -0 0 -1
    outer loop
      vertex 18.9283 18.3113 0
      vertex 18.025 13.4208 0
      vertex 18.7252 18.459 0
    endloop
  endfacet
  facet normal -0 0 -1
    outer loop
      vertex 18.7252 18.459 0
      vertex 18.025 13.4208 0
      vertex 18.5421 18.6309 0
    endloop
  endfacet
  facet normal -0 0 -1
    outer loop
      vertex 18.5421 18.6309 0
      vertex 18.025 13.4208 0
      vertex 18.382 18.8244 0
    endloop
  endfacet
  facet normal 0 0 -1
    outer loop
      vertex 11.637 19.7932 0
      vertex 18.382 18.8244 0
      vertex 18.025 13.4208 0
    endloop
  endfacet
  facet normal 0 0 -1
    outer loop
      vertex 11.637 19.7932 0
      vertex 18.2474 19.0365 0
      vertex 18.382 18.8244 0
    endloop
  endfacet
  facet normal 0 0 -1
    outer loop
      vertex 11.637 19.7932 0
      vertex 18.1404 19.2638 0
      vertex 18.2474 19.0365 0
    endloop
  endfacet
  facet normal 0 0 -1
    outer loop
      vertex 11.637 19.7932 0
      vertex 18.0628 19.5026 0
      vertex 18.1404 19.2638 0
    endloop
  endfacet
  facet normal 0 0 -1
    outer loop
      vertex 11.637 19.7932 0
      vertex 18.0158 19.7493 0
      vertex 18.0628 19.5026 0
    endloop
  endfacet
  facet normal 0 0 -1
    outer loop
      vertex 11.55 12.6847 0
      vertex 16.05 10 0
      vertex 13.1 10 0
    endloop
  endfacet
  facet normal 0 0 -1
    outer loop
      vertex 22 20 0
      vertex 50 0 0
      vertex 23.95 10 0
    endloop
  endfacet
  facet normal 0 0 -1
    outer loop
      vertex 50 0 0
      vertex 21.975 6.5792 0
      vertex 23.95 10 0
    endloop
  endfacet
  facet normal 0 0 -1
    outer loop
      vertex 0 0 0
      vertex 21.975 6.5792 0
      vertex 50 0 0
    endloop
  endfacet
  facet normal 0 0 -1
    outer loop
      vertex 11.55 7.31532 0
      vertex 16.05 10 0
      vertex 18.025 6.5792 0
    endloop
  endfacet
  facet normal -0 0 -1
    outer loop
      vertex 16.05 10 0
      vertex 11.55 7.31532 0
      vertex 13.1 10 0
    endloop
  endfacet
  facet normal -0 0 -1
    outer loop
      vertex 21.975 6.5792 0
      vertex 0 0 0
      vertex 18.025 6.5792 0
    endloop
  endfacet
  facet normal -0 0 -1
    outer loop
      vertex 18.025 6.5792 0
      vertex 0 0 0
      vertex 11.55 7.31532 0
    endloop
  endfacet
  facet normal -0 0 -1
    outer loop
      vertex 8.45 7.31532 0
      vertex 0 0 0
      vertex 6.9 10 0
    endloop
  endfacet
  facet normal -0 0 -1
    outer loop
      vertex 11.55 7.31532 0
      vertex 0 0 0
      vertex 8.45 7.31532 0
    endloop
  endfacet
  facet normal 0 0 -1
    outer loop
      vertex 21.9842 20.2507 0
      vertex 50 0 0
      vertex 22 20 0
    endloop
  endfacet
  facet normal 0 0 -1
    outer loop
      vertex 50 0 0
      vertex 21.9842 20.2507 0
      vertex 50 50 0
    endloop
  endfacet
  facet normal 0 0 -1
    outer loop
      vertex 21.9372 20.4974 0
      vertex 50 50 0
      vertex 21.9842 20.2507 0
    endloop
  endfacet
  facet normal 0 0 -1
    outer loop
      vertex 21.8596 20.7362 0
      vertex 50 50 0
      vertex 21.9372 20.4974 0
    endloop
  endfacet
  facet normal 0 0 -1
    outer loop
      vertex 21.7526 20.9635 0
      vertex 50 50 0
      vertex 21.8596 20.7362 0
    endloop
  endfacet
  facet normal 0 0 -1
    outer loop
      vertex 21.618 21.1756 0
      vertex 50 50 0
      vertex 21.7526 20.9635 0
    endloop
  endfacet
  facet normal 0 0 -1
    outer loop
      vertex 21.4579 21.3691 0
      vertex 50 50 0
      vertex 21.618 21.1756 0
    endloop
  endfacet
  facet normal 0 0 -1
    outer loop
      vertex 21.2748 21.541 0
      vertex 50 50 0
      vertex 21.4579 21.3691 0
    endloop
  endfacet
  facet normal 0 0 -1
    outer loop
      vertex 21.0717 21.6887 0
      vertex 50 50 0
      vertex 21.2748 21.541 0
    endloop
  endfacet
  facet normal 0 0 -1
    outer loop
      vertex 20.8516 21.8097 0
      vertex 50 50 0
      vertex 21.0717 21.6887 0
    endloop
  endfacet
  facet normal 0 0 -1
    outer loop
      vertex 20.618 21.9021 0
      vertex 50 50 0
      vertex 20.8516 21.8097 0
    endloop
  endfacet
  facet normal 0 0 -1
    outer loop
      vertex 20.3748 21.9646 0
      vertex 50 50 0
      vertex 20.618 21.9021 0
    endloop
  endfacet
  facet normal 0 0 -1
    outer loop
      vertex 0 50 0
      vertex 20.3748 21.9646 0
      vertex 20.1256 21.9961 0
    endloop
  endfacet
  facet normal 0 0 -1
    outer loop
      vertex 0 50 0
      vertex 20.1256 21.9961 0
      vertex 19.8744 21.9961 0
    endloop
  endfacet
  facet normal 0 0 -1
    outer loop
      vertex 0 50 0
      vertex 19.8744 21.9961 0
      vertex 19.6252 21.9646 0
    endloop
  endfacet
  facet normal 0 0 -1
    outer loop
      vertex 0 50 0
      vertex 19.6252 21.9646 0
      vertex 19.382 21.9021 0
    endloop
  endfacet
  facet normal 0 0 -1
    outer loop
      vertex 10.5099 21.5692 0
      vertex 19.382 21.9021 0
      vertex 19.1484 21.8097 0
    endloop
  endfacet
  facet normal 0 0 -1
    outer loop
      vertex 10.7025 21.493 0
      vertex 19.1484 21.8097 0
      vertex 18.9283 21.6887 0
    endloop
  endfacet
  facet normal 0 0 -1
    outer loop
      vertex 10.8841 21.3931 0
      vertex 18.9283 21.6887 0
      vertex 18.7252 21.541 0
    endloop
  endfacet
  facet normal 0 0 -1
    outer loop
      vertex 18.0158 19.7493 0
      vertex 11.65 20 0
      vertex 18 20 0
    endloop
  endfacet
  facet normal 0 0 -1
    outer loop
      vertex 18 20 0
      vertex 11.65 20 0
      vertex 18.0158 20.2507 0
    endloop
  endfacet
  facet normal 0 0 -1
    outer loop
      vertex 16.05 10 0
      vertex 11.55 12.6847 0
      vertex 18.025 13.4208 0
    endloop
  endfacet
  facet normal 0 0 -1
    outer loop
      vertex 11.637 20.2068 0
      vertex 18.0158 20.2507 0
      vertex 11.65 20 0
    endloop
  endfacet
  facet normal 0 0 -1
    outer loop
      vertex 11.5982 20.4103 0
      vertex 18.0158 20.2507 0
      vertex 11.637 20.2068 0
    endloop
  endfacet
  facet normal 0 0 -1
    outer loop
      vertex 18.0158 20.2507 0
      vertex 11.5982 20.4103 0
      vertex 18.0628 20.4974 0
    endloop
  endfacet
  facet normal 0 0 -1
    outer loop
      vertex 11.5341 20.6074 0
      vertex 18.0628 20.4974 0
      vertex 11.5982 20.4103 0
    endloop
  endfacet
  facet normal 0 0 -1
    outer loop
      vertex 18.0628 20.4974 0
      vertex 11.5341 20.6074 0
      vertex 18.1404 20.7362 0
    endloop
  endfacet
  facet normal 0 0 -1
    outer loop
      vertex 11.4459 20.7949 0
      vertex 18.1404 20.7362 0
      vertex 11.5341 20.6074 0
    endloop
  endfacet
  facet normal 0 0 -1
    outer loop
      vertex 18.1404 20.7362 0
      vertex 11.4459 20.7949 0
      vertex 18.2474 20.9635 0
    endloop
  endfacet
  facet normal 0 0 -1
    outer loop
      vertex 11.3349 20.9698 0
      vertex 18.2474 20.9635 0
      vertex 11.4459 20.7949 0
    endloop
  endfacet
  facet normal 0 0 -1
    outer loop
      vertex 18.2474 20.9635 0
      vertex 11.3349 20.9698 0
      vertex 18.382 21.1756 0
    endloop
  endfacet
  facet normal 0 0 -1
    outer loop
      vertex 11.2028 21.1295 0
      vertex 18.382 21.1756 0
      vertex 11.3349 20.9698 0
    endloop
  endfacet
  facet normal -0 0 -1
    outer loop
      vertex 18.382 21.1756 0
      vertex 11.2028 21.1295 0
      vertex 18.5421 21.3691 0
    endloop
  endfacet
  facet normal 0 0 -1
    outer loop
      vertex 11.0517 21.2713 0
      vertex 18.5421 21.3691 0
      vertex 11.2028 21.1295 0
    endloop
  endfacet
  facet normal -0 0 -1
    outer loop
      vertex 18.5421 21.3691 0
      vertex 11.0517 21.2713 0
      vertex 18.7252 21.541 0
    endloop
  endfacet
  facet normal 0 0 -1
    outer loop
      vertex 10.8841 21.3931 0
      vertex 18.7252 21.541 0
      vertex 11.0517 21.2713 0
    endloop
  endfacet
  facet normal 0 0 -1
    outer loop
      vertex 18.9283 21.6887 0
      vertex 10.8841 21.3931 0
      vertex 10.7025 21.493 0
    endloop
  endfacet
  facet normal 0 0 -1
    outer loop
      vertex 19.1484 21.8097 0
      vertex 10.7025 21.493 0
      vertex 10.5099 21.5692 0
    endloop
  endfacet
  facet normal 0 0 -1
    outer loop
      vertex 19.382 21.9021 0
      vertex 10.5099 21.5692 0
      vertex 10.3092 21.6208 0
    endloop
  endfacet
  facet normal -0 0 -1
    outer loop
      vertex 19.382 21.9021 0
      vertex 10.3092 21.6208 0
      vertex 0 50 0
    endloop
  endfacet
  facet normal 0 0 -1
    outer loop
      vertex 0 50 0
      vertex 10.3092 21.6208 0
      vertex 10.1036 21.6467 0
    endloop
  endfacet
  facet normal 0 0 -1
    outer loop
      vertex 0 50 0
      vertex 10.1036 21.6467 0
      vertex 9.89639 21.6467 0
    endloop
  endfacet
  facet normal 0 0 -1
    outer loop
      vertex 0 50 0
      vertex 9.89639 21.6467 0
      vertex 9.69082 21.6208 0
    endloop
  endfacet
  facet normal 0 0 -1
    outer loop
      vertex 0 50 0
      vertex 9.69082 21.6208 0
      vertex 9.49012 21.5692 0
    endloop
  endfacet
  facet normal 0 0 -1
    outer loop
      vertex 0 50 0
      vertex 9.49012 21.5692 0
      vertex 9.29746 21.493 0
    endloop
  endfacet
  facet normal 0 0 -1
    outer loop
      vertex 0 50 0
      vertex 9.29746 21.493 0
      vertex 9.11589 21.3931 0
    endloop
  endfacet
  facet normal 0 0 -1
    outer loop
      vertex 0 0 0
      vertex 8.35 20 0
      vertex 6.9 10 0
    endloop
  endfacet
  facet normal -0 0 -1
    outer loop
      vertex 8.35 20 0
      vertex 0 0 0
      vertex 8.36301 20.2068 0
    endloop
  endfacet
  facet normal 0 0 -1
    outer loop
      vertex 0 50 0
      vertex 8.36301 20.2068 0
      vertex 0 0 0
    endloop
  endfacet
  facet normal 0 0 -1
    outer loop
      vertex 8.36301 20.2068 0
      vertex 0 50 0
      vertex 8.40184 20.4103 0
    endloop
  endfacet
  facet normal 0 0 -1
    outer loop
      vertex 20.3748 21.9646 0
      vertex 0 50 0
      vertex 50 50 0
    endloop
  endfacet
  facet normal 0 0 -1
    outer loop
      vertex 8.94825 21.2713 0
      vertex 0 50 0
      vertex 9.11589 21.3931 0
    endloop
  endfacet
  facet normal 0 0 -1
    outer loop
      vertex 8.7972 21.1295 0
      vertex 0 50 0
      vertex 8.94825 21.2713 0
    endloop
  endfacet
  facet normal 0 0 -1
    outer loop
      vertex 8.66512 20.9698 0
      vertex 0 50 0
      vertex 8.7972 21.1295 0
    endloop
  endfacet
  facet normal 0 0 -1
    outer loop
      vertex 8.55409 20.7949 0
      vertex 0 50 0
      vertex 8.66512 20.9698 0
    endloop
  endfacet
  facet normal 0 0 -1
    outer loop
      vertex 8.46587 20.6074 0
      vertex 0 50 0
      vertex 8.55409 20.7949 0
    endloop
  endfacet
  facet normal 0 0 -1
    outer loop
      vertex 8.40184 20.4103 0
      vertex 0 50 0
      vertex 8.46587 20.6074 0
    endloop
  endfacet
  facet normal 0 -1 0
    outer loop
      vertex 0 0 0
      vertex 50 0 2
      vertex 0 0 2
    endloop
  endfacet
  facet normal 0 -1 -0
    outer loop
      vertex 50 0 2
      vertex 0 0 0
      vertex 50 0 0
    endloop
  endfacet
  facet normal -0.866025 -0.5 0
    outer loop
      vertex 13.1 10 0
      vertex 11.55 12.6847 2
      vertex 11.55 12.6847 0
    endloop
  endfacet
  facet normal -0.866025 -0.5 0
    outer loop
      vertex 11.55 12.6847 2
      vertex 13.1 10 0
      vertex 13.1 10 2
    endloop
  endfacet
  facet normal 0 1 -0
    outer loop
      vertex 11.55 7.31532 0
      vertex 8.45 7.31532 2
      vertex 11.55 7.31532 2
    endloop
  endfacet
  facet normal 0 1 0
    outer loop
      vertex 8.45 7.31532 2
      vertex 11.55 7.31532 0
      vertex 8.45 7.31532 0
    endloop
  endfacet
  facet normal 0.866025 -0.5 0
    outer loop
      vertex 6.9 10 2
      vertex 8.45 12.6847 0
      vertex 8.45 12.6847 2
    endloop
  endfacet
  facet normal 0.866025 -0.5 0
    outer loop
      vertex 8.45 12.6847 0
      vertex 6.9 10 2
      vertex 6.9 10 0
    endloop
  endfacet
  facet normal 0 -1 0
    outer loop
      vertex 8.45 12.6847 0
      vertex 11.55 12.6847 2
      vertex 8.45 12.6847 2
    endloop
  endfacet
  facet normal 0 -1 -0
    outer loop
      vertex 11.55 12.6847 2
      vertex 8.45 12.6847 0
      vertex 11.55 12.6847 0
    endloop
  endfacet
  facet normal 0.866025 0.5 0
    outer loop
      vertex 8.45 7.31532 2
      vertex 6.9 10 0
      vertex 6.9 10 2
    endloop
  endfacet
  facet normal 0.866025 0.5 0
    outer loop
      vertex 6.9 10 0
      vertex 8.45 7.31532 2
      vertex 8.45 7.31532 0
    endloop
  endfacet
  facet normal -0.866025 0.5 0
    outer loop
      vertex 11.55 7.31532 0
      vertex 13.1 10 2
      vertex 13.1 10 0
    endloop
  endfacet
  facet normal -0.866025 0.5 0
    outer loop
      vertex 13.1 10 2
      vertex 11.55 7.31532 0
      vertex 11.55 7.31532 2
    endloop
  endfacet
  facet normal -0.587782 -0.809019 0
    outer loop
      vertex 10.8841 21.3931 0
      vertex 11.0517 21.2713 2
      vertex 10.8841 21.3931 2
    endloop
  endfacet
  facet normal -0.587782 -0.809019 -0
    outer loop
      vertex 11.0517 21.2713 2
      vertex 10.8841 21.3931 0
      vertex 11.0517 21.2713 0
    endloop
  endfacet
  facet normal 0.368124 -0.929777 0
    outer loop
      vertex 9.29746 21.493 0
      vertex 9.49012 21.5692 2
      vertex 9.29746 21.493 2
    endloop
  endfacet
  facet normal 0.368124 -0.929777 0
    outer loop
      vertex 9.49012 21.5692 2
      vertex 9.29746 21.493 0
      vertex 9.49012 21.5692 0
    endloop
  endfacet
  facet normal 0.904827 -0.425779 0
    outer loop
      vertex 8.46587 20.6074 2
      vertex 8.55409 20.7949 0
      vertex 8.55409 20.7949 2
    endloop
  endfacet
  facet normal 0.904827 -0.425779 0
    outer loop
      vertex 8.55409 20.7949 0
      vertex 8.46587 20.6074 2
      vertex 8.46587 20.6074 0
    endloop
  endfacet
  facet normal 0.368124 0.929777 -0
    outer loop
      vertex 9.49012 18.4308 0
      vertex 9.29746 18.507 2
      vertex 9.49012 18.4308 2
    endloop
  endfacet
  facet normal 0.368124 0.929777 0
    outer loop
      vertex 9.29746 18.507 2
      vertex 9.49012 18.4308 0
      vertex 9.29746 18.507 0
    endloop
  endfacet
  facet normal -0.904827 -0.425779 0
    outer loop
      vertex 11.5341 20.6074 0
      vertex 11.4459 20.7949 2
      vertex 11.4459 20.7949 0
    endloop
  endfacet
  facet normal -0.904827 -0.425779 0
    outer loop
      vertex 11.4459 20.7949 2
      vertex 11.5341 20.6074 0
      vertex 11.5341 20.6074 2
    endloop
  endfacet
  facet normal -0.844328 -0.535827 0
    outer loop
      vertex 11.4459 20.7949 0
      vertex 11.3349 20.9698 2
      vertex 11.3349 20.9698 0
    endloop
  endfacet
  facet normal -0.844328 -0.535827 0
    outer loop
      vertex 11.3349 20.9698 2
      vertex 11.4459 20.7949 0
      vertex 11.4459 20.7949 2
    endloop
  endfacet
  facet normal -0.684551 -0.728965 0
    outer loop
      vertex 11.0517 21.2713 0
      vertex 11.2028 21.1295 2
      vertex 11.0517 21.2713 2
    endloop
  endfacet
  facet normal -0.684551 -0.728965 -0
    outer loop
      vertex 11.2028 21.1295 2
      vertex 11.0517 21.2713 0
      vertex 11.2028 21.1295 0
    endloop
  endfacet
  facet normal -0.368124 -0.929777 0
    outer loop
      vertex 10.5099 21.5692 0
      vertex 10.7025 21.493 2
      vertex 10.5099 21.5692 2
    endloop
  endfacet
  facet normal -0.368124 -0.929777 -0
    outer loop
      vertex 10.7025 21.493 2
      vertex 10.5099 21.5692 0
      vertex 10.7025 21.493 0
    endloop
  endfacet
  facet normal 0 -1 0
    outer loop
      vertex 9.89639 21.6467 0
      vertex 10.1036 21.6467 2
      vertex 9.89639 21.6467 2
    endloop
  endfacet
  facet normal 0 -1 -0
    outer loop
      vertex 10.1036 21.6467 2
      vertex 9.89639 21.6467 0
      vertex 10.1036 21.6467 0
    endloop
  endfacet
  facet normal 0.998027 -0.062792 0
    outer loop
      vertex 8.35 20 2
      vertex 8.36301 20.2068 0
      vertex 8.36301 20.2068 2
    endloop
  endfacet
  facet normal 0.998027 -0.062792 0
    outer loop
      vertex 8.36301 20.2068 0
      vertex 8.35 20 2
      vertex 8.35 20 0
    endloop
  endfacet
  facet normal 0.770512 -0.637426 0
    outer loop
      vertex 8.66512 20.9698 2
      vertex 8.7972 21.1295 0
      vertex 8.7972 21.1295 2
    endloop
  endfacet
  facet normal 0.770512 -0.637426 0
    outer loop
      vertex 8.7972 21.1295 0
      vertex 8.66512 20.9698 2
      vertex 8.66512 20.9698 0
    endloop
  endfacet
  facet normal 0.481753 -0.876307 0
    outer loop
      vertex 9.11589 21.3931 0
      vertex 9.29746 21.493 2
      vertex 9.11589 21.3931 2
    endloop
  endfacet
  facet normal 0.481753 -0.876307 0
    outer loop
      vertex 9.29746 21.493 2
      vertex 9.11589 21.3931 0
      vertex 9.29746 21.493 0
    endloop
  endfacet
  facet normal 0.24869 -0.968583 0
    outer loop
      vertex 9.49012 21.5692 0
      vertex 9.69082 21.6208 2
      vertex 9.49012 21.5692 2
    endloop
  endfacet
  facet normal 0.24869 -0.968583 0
    outer loop
      vertex 9.69082 21.6208 2
      vertex 9.49012 21.5692 0
      vertex 9.69082 21.6208 0
    endloop
  endfacet
  facet normal -0.998027 0.0627915 0
    outer loop
      vertex 11.637 19.7932 0
      vertex 11.65 20 2
      vertex 11.65 20 0
    endloop
  endfacet
  facet normal -0.998027 0.0627915 0
    outer loop
      vertex 11.65 20 2
      vertex 11.637 19.7932 0
      vertex 11.637 19.7932 2
    endloop
  endfacet
  facet normal -0.368124 0.929777 0
    outer loop
      vertex 10.7025 18.507 0
      vertex 10.5099 18.4308 2
      vertex 10.7025 18.507 2
    endloop
  endfacet
  facet normal -0.368124 0.929777 0
    outer loop
      vertex 10.5099 18.4308 2
      vertex 10.7025 18.507 0
      vertex 10.5099 18.4308 0
    endloop
  endfacet
  facet normal -0.481753 0.876307 0
    outer loop
      vertex 10.8841 18.6069 0
      vertex 10.7025 18.507 2
      vertex 10.8841 18.6069 2
    endloop
  endfacet
  facet normal -0.481753 0.876307 0
    outer loop
      vertex 10.7025 18.507 2
      vertex 10.8841 18.6069 0
      vertex 10.7025 18.507 0
    endloop
  endfacet
  facet normal -0.770515 0.637422 0
    outer loop
      vertex 11.2028 18.8705 0
      vertex 11.3349 19.0302 2
      vertex 11.3349 19.0302 0
    endloop
  endfacet
  facet normal -0.770515 0.637422 0
    outer loop
      vertex 11.3349 19.0302 2
      vertex 11.2028 18.8705 0
      vertex 11.2028 18.8705 2
    endloop
  endfacet
  facet normal 0 1 -0
    outer loop
      vertex 10.1036 18.3533 0
      vertex 9.89639 18.3533 2
      vertex 10.1036 18.3533 2
    endloop
  endfacet
  facet normal 0 1 0
    outer loop
      vertex 9.89639 18.3533 2
      vertex 10.1036 18.3533 0
      vertex 9.89639 18.3533 0
    endloop
  endfacet
  facet normal 0.587789 0.809015 -0
    outer loop
      vertex 9.11589 18.6069 0
      vertex 8.94825 18.7287 2
      vertex 9.11589 18.6069 2
    endloop
  endfacet
  facet normal 0.587789 0.809015 0
    outer loop
      vertex 8.94825 18.7287 2
      vertex 9.11589 18.6069 0
      vertex 8.94825 18.7287 0
    endloop
  endfacet
  facet normal 0.684546 0.728969 -0
    outer loop
      vertex 8.94825 18.7287 0
      vertex 8.7972 18.8705 2
      vertex 8.94825 18.7287 2
    endloop
  endfacet
  facet normal 0.684546 0.728969 0
    outer loop
      vertex 8.7972 18.8705 2
      vertex 8.94825 18.7287 0
      vertex 8.7972 18.8705 0
    endloop
  endfacet
  facet normal -0.982287 -0.18738 0
    outer loop
      vertex 11.637 20.2068 0
      vertex 11.5982 20.4103 2
      vertex 11.5982 20.4103 0
    endloop
  endfacet
  facet normal -0.982287 -0.18738 0
    outer loop
      vertex 11.5982 20.4103 2
      vertex 11.637 20.2068 0
      vertex 11.637 20.2068 2
    endloop
  endfacet
  facet normal -0.951057 -0.309015 0
    outer loop
      vertex 11.5982 20.4103 0
      vertex 11.5341 20.6074 2
      vertex 11.5341 20.6074 0
    endloop
  endfacet
  facet normal -0.951057 -0.309015 0
    outer loop
      vertex 11.5341 20.6074 2
      vertex 11.5982 20.4103 0
      vertex 11.5982 20.4103 2
    endloop
  endfacet
  facet normal -0.770512 -0.637426 0
    outer loop
      vertex 11.3349 20.9698 0
      vertex 11.2028 21.1295 2
      vertex 11.2028 21.1295 0
    endloop
  endfacet
  facet normal -0.770512 -0.637426 0
    outer loop
      vertex 11.2028 21.1295 2
      vertex 11.3349 20.9698 0
      vertex 11.3349 20.9698 2
    endloop
  endfacet
  facet normal -0.481753 -0.876307 0
    outer loop
      vertex 10.7025 21.493 0
      vertex 10.8841 21.3931 2
      vertex 10.7025 21.493 2
    endloop
  endfacet
  facet normal -0.481753 -0.876307 -0
    outer loop
      vertex 10.8841 21.3931 2
      vertex 10.7025 21.493 0
      vertex 10.8841 21.3931 0
    endloop
  endfacet
  facet normal -0.24869 -0.968583 0
    outer loop
      vertex 10.3092 21.6208 0
      vertex 10.5099 21.5692 2
      vertex 10.3092 21.6208 2
    endloop
  endfacet
  facet normal -0.24869 -0.968583 -0
    outer loop
      vertex 10.5099 21.5692 2
      vertex 10.3092 21.6208 0
      vertex 10.5099 21.5692 0
    endloop
  endfacet
  facet normal -0.125335 -0.992114 0
    outer loop
      vertex 10.1036 21.6467 0
      vertex 10.3092 21.6208 2
      vertex 10.1036 21.6467 2
    endloop
  endfacet
  facet normal -0.125335 -0.992114 -0
    outer loop
      vertex 10.3092 21.6208 2
      vertex 10.1036 21.6467 0
      vertex 10.3092 21.6208 0
    endloop
  endfacet
  facet normal 0.951057 -0.309015 0
    outer loop
      vertex 8.40184 20.4103 2
      vertex 8.46587 20.6074 0
      vertex 8.46587 20.6074 2
    endloop
  endfacet
  facet normal 0.951057 -0.309015 0
    outer loop
      vertex 8.46587 20.6074 0
      vertex 8.40184 20.4103 2
      vertex 8.40184 20.4103 0
    endloop
  endfacet
  facet normal 0.982287 -0.18738 0
    outer loop
      vertex 8.36301 20.2068 2
      vertex 8.40184 20.4103 0
      vertex 8.40184 20.4103 2
    endloop
  endfacet
  facet normal 0.982287 -0.18738 0
    outer loop
      vertex 8.40184 20.4103 0
      vertex 8.36301 20.2068 2
      vertex 8.36301 20.2068 0
    endloop
  endfacet
  facet normal 0.844328 -0.535827 0
    outer loop
      vertex 8.55409 20.7949 2
      vertex 8.66512 20.9698 0
      vertex 8.66512 20.9698 2
    endloop
  endfacet
  facet normal 0.844328 -0.535827 0
    outer loop
      vertex 8.66512 20.9698 0
      vertex 8.55409 20.7949 2
      vertex 8.55409 20.7949 0
    endloop
  endfacet
  facet normal 0.125335 -0.992114 0
    outer loop
      vertex 9.69082 21.6208 0
      vertex 9.89639 21.6467 2
      vertex 9.69082 21.6208 2
    endloop
  endfacet
  facet normal 0.125335 -0.992114 0
    outer loop
      vertex 9.89639 21.6467 2
      vertex 9.69082 21.6208 0
      vertex 9.89639 21.6467 0
    endloop
  endfacet
  facet normal 0.587782 -0.809019 0
    outer loop
      vertex 8.94825 21.2713 0
      vertex 9.11589 21.3931 2
      vertex 8.94825 21.2713 2
    endloop
  endfacet
  facet normal 0.587782 -0.809019 0
    outer loop
      vertex 9.11589 21.3931 2
      vertex 8.94825 21.2713 0
      vertex 9.11589 21.3931 0
    endloop
  endfacet
  facet normal 0.684551 -0.728965 0
    outer loop
      vertex 8.7972 21.1295 0
      vertex 8.94825 21.2713 2
      vertex 8.7972 21.1295 2
    endloop
  endfacet
  facet normal 0.684551 -0.728965 0
    outer loop
      vertex 8.94825 21.2713 2
      vertex 8.7972 21.1295 0
      vertex 8.94825 21.2713 0
    endloop
  endfacet
  facet normal -0.998027 -0.062792 0
    outer loop
      vertex 11.65 20 0
      vertex 11.637 20.2068 2
      vertex 11.637 20.2068 0
    endloop
  endfacet
  facet normal -0.998027 -0.062792 0
    outer loop
      vertex 11.637 20.2068 2
      vertex 11.65 20 0
      vertex 11.65 20 2
    endloop
  endfacet
  facet normal -0.125335 0.992114 0
    outer loop
      vertex 10.3092 18.3792 0
      vertex 10.1036 18.3533 2
      vertex 10.3092 18.3792 2
    endloop
  endfacet
  facet normal -0.125335 0.992114 0
    outer loop
      vertex 10.1036 18.3533 2
      vertex 10.3092 18.3792 0
      vertex 10.1036 18.3533 0
    endloop
  endfacet
  facet normal -0.951057 0.309015 0
    outer loop
      vertex 11.5341 19.3926 0
      vertex 11.5982 19.5897 2
      vertex 11.5982 19.5897 0
    endloop
  endfacet
  facet normal -0.951057 0.309015 0
    outer loop
      vertex 11.5982 19.5897 2
      vertex 11.5341 19.3926 0
      vertex 11.5341 19.3926 2
    endloop
  endfacet
  facet normal -0.587789 0.809015 0
    outer loop
      vertex 11.0517 18.7287 0
      vertex 10.8841 18.6069 2
      vertex 11.0517 18.7287 2
    endloop
  endfacet
  facet normal -0.587789 0.809015 0
    outer loop
      vertex 10.8841 18.6069 2
      vertex 11.0517 18.7287 0
      vertex 10.8841 18.6069 0
    endloop
  endfacet
  facet normal -0.904827 0.425779 0
    outer loop
      vertex 11.4459 19.2051 0
      vertex 11.5341 19.3926 2
      vertex 11.5341 19.3926 0
    endloop
  endfacet
  facet normal -0.904827 0.425779 0
    outer loop
      vertex 11.5341 19.3926 2
      vertex 11.4459 19.2051 0
      vertex 11.4459 19.2051 2
    endloop
  endfacet
  facet normal 0.248682 0.968585 -0
    outer loop
      vertex 9.69082 18.3792 0
      vertex 9.49012 18.4308 2
      vertex 9.69082 18.3792 2
    endloop
  endfacet
  facet normal 0.248682 0.968585 0
    outer loop
      vertex 9.49012 18.4308 2
      vertex 9.69082 18.3792 0
      vertex 9.49012 18.4308 0
    endloop
  endfacet
  facet normal 0.481753 0.876307 -0
    outer loop
      vertex 9.29746 18.507 0
      vertex 9.11589 18.6069 2
      vertex 9.29746 18.507 2
    endloop
  endfacet
  facet normal 0.481753 0.876307 0
    outer loop
      vertex 9.11589 18.6069 2
      vertex 9.29746 18.507 0
      vertex 9.11589 18.6069 0
    endloop
  endfacet
  facet normal 0.904827 0.425779 0
    outer loop
      vertex 8.55409 19.2051 2
      vertex 8.46587 19.3926 0
      vertex 8.46587 19.3926 2
    endloop
  endfacet
  facet normal 0.904827 0.425779 0
    outer loop
      vertex 8.46587 19.3926 0
      vertex 8.55409 19.2051 2
      vertex 8.55409 19.2051 0
    endloop
  endfacet
  facet normal 0.982287 0.18738 0
    outer loop
      vertex 8.40184 19.5897 2
      vertex 8.36301 19.7932 0
      vertex 8.36301 19.7932 2
    endloop
  endfacet
  facet normal 0.982287 0.18738 0
    outer loop
      vertex 8.36301 19.7932 0
      vertex 8.40184 19.5897 2
      vertex 8.40184 19.5897 0
    endloop
  endfacet
  facet normal 0.844325 0.535831 0
    outer loop
      vertex 8.66512 19.0302 2
      vertex 8.55409 19.2051 0
      vertex 8.55409 19.2051 2
    endloop
  endfacet
  facet normal 0.844325 0.535831 0
    outer loop
      vertex 8.55409 19.2051 0
      vertex 8.66512 19.0302 2
      vertex 8.66512 19.0302 0
    endloop
  endfacet
  facet normal 0.998027 0.0627915 0
    outer loop
      vertex 8.36301 19.7932 2
      vertex 8.35 20 0
      vertex 8.35 20 2
    endloop
  endfacet
  facet normal 0.998027 0.0627915 0
    outer loop
      vertex 8.35 20 0
      vertex 8.36301 19.7932 2
      vertex 8.36301 19.7932 0
    endloop
  endfacet
  facet normal -0.982287 0.18738 0
    outer loop
      vertex 11.5982 19.5897 0
      vertex 11.637 19.7932 2
      vertex 11.637 19.7932 0
    endloop
  endfacet
  facet normal -0.982287 0.18738 0
    outer loop
      vertex 11.637 19.7932 2
      vertex 11.5982 19.5897 0
      vertex 11.5982 19.5897 2
    endloop
  endfacet
  facet normal -0.248682 0.968585 0
    outer loop
      vertex 10.5099 18.4308 0
      vertex 10.3092 18.3792 2
      vertex 10.5099 18.4308 2
    endloop
  endfacet
  facet normal -0.248682 0.968585 0
    outer loop
      vertex 10.3092 18.3792 2
      vertex 10.5099 18.4308 0
      vertex 10.3092 18.3792 0
    endloop
  endfacet
  facet normal -0.684546 0.728969 0
    outer loop
      vertex 11.2028 18.8705 0
      vertex 11.0517 18.7287 2
      vertex 11.2028 18.8705 2
    endloop
  endfacet
  facet normal -0.684546 0.728969 0
    outer loop
      vertex 11.0517 18.7287 2
      vertex 11.2028 18.8705 0
      vertex 11.0517 18.7287 0
    endloop
  endfacet
  facet normal -0.844325 0.535831 0
    outer loop
      vertex 11.3349 19.0302 0
      vertex 11.4459 19.2051 2
      vertex 11.4459 19.2051 0
    endloop
  endfacet
  facet normal -0.844325 0.535831 0
    outer loop
      vertex 11.4459 19.2051 2
      vertex 11.3349 19.0302 0
      vertex 11.3349 19.0302 2
    endloop
  endfacet
  facet normal 0.125335 0.992114 -0
    outer loop
      vertex 9.89639 18.3533 0
      vertex 9.69082 18.3792 2
      vertex 9.89639 18.3533 2
    endloop
  endfacet
  facet normal 0.125335 0.992114 0
    outer loop
      vertex 9.69082 18.3792 2
      vertex 9.89639 18.3533 0
      vertex 9.69082 18.3792 0
    endloop
  endfacet
  facet normal 0.951057 0.309015 0
    outer loop
      vertex 8.46587 19.3926 2
      vertex 8.40184 19.5897 0
      vertex 8.40184 19.5897 2
    endloop
  endfacet
  facet normal 0.951057 0.309015 0
    outer loop
      vertex 8.40184 19.5897 0
      vertex 8.46587 19.3926 2
      vertex 8.46587 19.3926 0
    endloop
  endfacet
  facet normal 0.770515 0.637422 0
    outer loop
      vertex 8.7972 18.8705 2
      vertex 8.66512 19.0302 0
      vertex 8.66512 19.0302 2
    endloop
  endfacet
  facet normal 0.770515 0.637422 0
    outer loop
      vertex 8.66512 19.0302 0
      vertex 8.7972 18.8705 2
      vertex 8.7972 18.8705 0
    endloop
  endfacet
  facet normal -0.866025 -0.5 0
    outer loop
      vertex 23.95 10 0
      vertex 21.975 13.4208 2
      vertex 21.975 13.4208 0
    endloop
  endfacet
  facet normal -0.866025 -0.5 0
    outer loop
      vertex 21.975 13.4208 2
      vertex 23.95 10 0
      vertex 23.95 10 2
    endloop
  endfacet
  facet normal 0.866025 -0.5 0
    outer loop
      vertex 16.05 10 2
      vertex 18.025 13.4208 0
      vertex 18.025 13.4208 2
    endloop
  endfacet
  facet normal 0.866025 -0.5 0
    outer loop
      vertex 18.025 13.4208 0
      vertex 16.05 10 2
      vertex 16.05 10 0
    endloop
  endfacet
  facet normal 0 -1 0
    outer loop
      vertex 18.025 13.4208 0
      vertex 21.975 13.4208 2
      vertex 18.025 13.4208 2
    endloop
  endfacet
  facet normal 0 -1 -0
    outer loop
      vertex 21.975 13.4208 2
      vertex 18.025 13.4208 0
      vertex 21.975 13.4208 0
    endloop
  endfacet
  facet normal 0.866025 0.5 0
    outer loop
      vertex 18.025 6.5792 2
      vertex 16.05 10 0
      vertex 16.05 10 2
    endloop
  endfacet
  facet normal 0.866025 0.5 0
    outer loop
      vertex 16.05 10 0
      vertex 18.025 6.5792 2
      vertex 18.025 6.5792 0
    endloop
  endfacet
  facet normal -0.866025 0.5 0
    outer loop
      vertex 21.975 6.5792 0
      vertex 23.95 10 2
      vertex 23.95 10 0
    endloop
  endfacet
  facet normal -0.866025 0.5 0
    outer loop
      vertex 23.95 10 2
      vertex 21.975 6.5792 0
      vertex 21.975 6.5792 2
    endloop
  endfacet
  facet normal 0 1 -0
    outer loop
      vertex 21.975 6.5792 0
      vertex 18.025 6.5792 2
      vertex 21.975 6.5792 2
    endloop
  endfacet
  facet normal 0 1 0
    outer loop
      vertex 18.025 6.5792 2
      vertex 21.975 6.5792 0
      vertex 18.025 6.5792 0
    endloop
  endfacet
  facet normal -0.998027 -0.0627882 0
    outer loop
      vertex 22 20 0
      vertex 21.9842 20.2507 2
      vertex 21.9842 20.2507 0
    endloop
  endfacet
  facet normal -0.998027 -0.0627882 0
    outer loop
      vertex 21.9842 20.2507 2
      vertex 22 20 0
      vertex 22 20 2
    endloop
  endfacet
  facet normal 0.125333 -0.992115 0
    outer loop
      vertex 19.6252 21.9646 0
      vertex 19.8744 21.9961 2
      vertex 19.6252 21.9646 2
    endloop
  endfacet
  facet normal 0.125333 -0.992115 0
    outer loop
      vertex 19.8744 21.9961 2
      vertex 19.6252 21.9646 0
      vertex 19.8744 21.9961 0
    endloop
  endfacet
  facet normal -0.125332 0.992115 0
    outer loop
      vertex 20.3748 18.0354 0
      vertex 20.1256 18.0039 2
      vertex 20.3748 18.0354 2
    endloop
  endfacet
  facet normal -0.125332 0.992115 0
    outer loop
      vertex 20.1256 18.0039 2
      vertex 20.3748 18.0354 0
      vertex 20.1256 18.0039 0
    endloop
  endfacet
  facet normal -0.684545 -0.72897 0
    outer loop
      vertex 21.2748 21.541 0
      vertex 21.4579 21.3691 2
      vertex 21.2748 21.541 2
    endloop
  endfacet
  facet normal -0.684545 -0.72897 -0
    outer loop
      vertex 21.4579 21.3691 2
      vertex 21.2748 21.541 0
      vertex 21.4579 21.3691 0
    endloop
  endfacet
  facet normal 0.770516 -0.637421 0
    outer loop
      vertex 18.382 21.1756 2
      vertex 18.5421 21.3691 0
      vertex 18.5421 21.3691 2
    endloop
  endfacet
  facet normal 0.770516 -0.637421 0
    outer loop
      vertex 18.5421 21.3691 0
      vertex 18.382 21.1756 2
      vertex 18.382 21.1756 0
    endloop
  endfacet
  facet normal 0.481751 -0.876308 0
    outer loop
      vertex 18.9283 21.6887 0
      vertex 19.1484 21.8097 2
      vertex 18.9283 21.6887 2
    endloop
  endfacet
  facet normal 0.481751 -0.876308 0
    outer loop
      vertex 19.1484 21.8097 2
      vertex 18.9283 21.6887 0
      vertex 19.1484 21.8097 0
    endloop
  endfacet
  facet normal -0.951056 0.309017 0
    outer loop
      vertex 21.8596 19.2638 0
      vertex 21.9372 19.5026 2
      vertex 21.9372 19.5026 0
    endloop
  endfacet
  facet normal -0.951056 0.309017 0
    outer loop
      vertex 21.9372 19.5026 2
      vertex 21.8596 19.2638 0
      vertex 21.8596 19.2638 2
    endloop
  endfacet
  facet normal -0.904828 -0.425778 0
    outer loop
      vertex 21.8596 20.7362 0
      vertex 21.7526 20.9635 2
      vertex 21.7526 20.9635 0
    endloop
  endfacet
  facet normal -0.904828 -0.425778 0
    outer loop
      vertex 21.7526 20.9635 2
      vertex 21.8596 20.7362 0
      vertex 21.8596 20.7362 2
    endloop
  endfacet
  facet normal -0.982287 -0.187384 0
    outer loop
      vertex 21.9842 20.2507 0
      vertex 21.9372 20.4974 2
      vertex 21.9372 20.4974 0
    endloop
  endfacet
  facet normal -0.982287 -0.187384 0
    outer loop
      vertex 21.9372 20.4974 2
      vertex 21.9842 20.2507 0
      vertex 21.9842 20.2507 2
    endloop
  endfacet
  facet normal -0.368124 -0.929777 0
    outer loop
      vertex 20.618 21.9021 0
      vertex 20.8516 21.8097 2
      vertex 20.618 21.9021 2
    endloop
  endfacet
  facet normal -0.368124 -0.929777 -0
    outer loop
      vertex 20.8516 21.8097 2
      vertex 20.618 21.9021 0
      vertex 20.8516 21.8097 0
    endloop
  endfacet
  facet normal -0.587785 -0.809017 0
    outer loop
      vertex 21.0717 21.6887 0
      vertex 21.2748 21.541 2
      vertex 21.0717 21.6887 2
    endloop
  endfacet
  facet normal -0.587785 -0.809017 -0
    outer loop
      vertex 21.2748 21.541 2
      vertex 21.0717 21.6887 0
      vertex 21.2748 21.541 0
    endloop
  endfacet
  facet normal 0.951056 -0.309019 0
    outer loop
      vertex 18.0628 20.4974 2
      vertex 18.1404 20.7362 0
      vertex 18.1404 20.7362 2
    endloop
  endfacet
  facet normal 0.951056 -0.309019 0
    outer loop
      vertex 18.1404 20.7362 0
      vertex 18.0628 20.4974 2
      vertex 18.0628 20.4974 0
    endloop
  endfacet
  facet normal 0.844331 -0.535822 0
    outer loop
      vertex 18.2474 20.9635 2
      vertex 18.382 21.1756 0
      vertex 18.382 21.1756 2
    endloop
  endfacet
  facet normal 0.844331 -0.535822 0
    outer loop
      vertex 18.382 21.1756 0
      vertex 18.2474 20.9635 2
      vertex 18.2474 20.9635 0
    endloop
  endfacet
  facet normal 0.982288 -0.187377 0
    outer loop
      vertex 18.0158 20.2507 2
      vertex 18.0628 20.4974 0
      vertex 18.0628 20.4974 2
    endloop
  endfacet
  facet normal 0.982288 -0.187377 0
    outer loop
      vertex 18.0628 20.4974 0
      vertex 18.0158 20.2507 2
      vertex 18.0158 20.2507 0
    endloop
  endfacet
  facet normal 0.248685 -0.968585 0
    outer loop
      vertex 19.382 21.9021 0
      vertex 19.6252 21.9646 2
      vertex 19.382 21.9021 2
    endloop
  endfacet
  facet normal 0.248685 -0.968585 0
    outer loop
      vertex 19.6252 21.9646 2
      vertex 19.382 21.9021 0
      vertex 19.6252 21.9646 0
    endloop
  endfacet
  facet normal -0.248685 0.968585 0
    outer loop
      vertex 20.618 18.0979 0
      vertex 20.3748 18.0354 2
      vertex 20.618 18.0979 2
    endloop
  endfacet
  facet normal -0.248685 0.968585 0
    outer loop
      vertex 20.3748 18.0354 2
      vertex 20.618 18.0979 0
      vertex 20.3748 18.0354 0
    endloop
  endfacet
  facet normal -0.951056 -0.309019 0
    outer loop
      vertex 21.9372 20.4974 0
      vertex 21.8596 20.7362 2
      vertex 21.8596 20.7362 0
    endloop
  endfacet
  facet normal -0.951056 -0.309019 0
    outer loop
      vertex 21.8596 20.7362 2
      vertex 21.9372 20.4974 0
      vertex 21.9372 20.4974 2
    endloop
  endfacet
  facet normal -0.770512 -0.637425 0
    outer loop
      vertex 21.618 21.1756 0
      vertex 21.4579 21.3691 2
      vertex 21.4579 21.3691 0
    endloop
  endfacet
  facet normal -0.770512 -0.637425 0
    outer loop
      vertex 21.4579 21.3691 2
      vertex 21.618 21.1756 0
      vertex 21.618 21.1756 2
    endloop
  endfacet
  facet normal -0.844331 -0.535822 0
    outer loop
      vertex 21.7526 20.9635 0
      vertex 21.618 21.1756 2
      vertex 21.618 21.1756 0
    endloop
  endfacet
  facet normal -0.844331 -0.535822 0
    outer loop
      vertex 21.618 21.1756 2
      vertex 21.7526 20.9635 0
      vertex 21.7526 20.9635 2
    endloop
  endfacet
  facet normal -0.125332 -0.992115 0
    outer loop
      vertex 20.1256 21.9961 0
      vertex 20.3748 21.9646 2
      vertex 20.1256 21.9961 2
    endloop
  endfacet
  facet normal -0.125332 -0.992115 -0
    outer loop
      vertex 20.3748 21.9646 2
      vertex 20.1256 21.9961 0
      vertex 20.3748 21.9646 0
    endloop
  endfacet
  facet normal -0.248685 -0.968585 0
    outer loop
      vertex 20.3748 21.9646 0
      vertex 20.618 21.9021 2
      vertex 20.3748 21.9646 2
    endloop
  endfacet
  facet normal -0.248685 -0.968585 -0
    outer loop
      vertex 20.618 21.9021 2
      vertex 20.3748 21.9646 0
      vertex 20.618 21.9021 0
    endloop
  endfacet
  facet normal 0 -1 0
    outer loop
      vertex 19.8744 21.9961 0
      vertex 20.1256 21.9961 2
      vertex 19.8744 21.9961 2
    endloop
  endfacet
  facet normal 0 -1 -0
    outer loop
      vertex 20.1256 21.9961 2
      vertex 19.8744 21.9961 0
      vertex 20.1256 21.9961 0
    endloop
  endfacet
  facet normal -0.481755 -0.876306 0
    outer loop
      vertex 20.8516 21.8097 0
      vertex 21.0717 21.6887 2
      vertex 20.8516 21.8097 2
    endloop
  endfacet
  facet normal -0.481755 -0.876306 -0
    outer loop
      vertex 21.0717 21.6887 2
      vertex 20.8516 21.8097 0
      vertex 21.0717 21.6887 0
    endloop
  endfacet
  facet normal 0.904825 -0.425784 0
    outer loop
      vertex 18.1404 20.7362 2
      vertex 18.2474 20.9635 0
      vertex 18.2474 20.9635 2
    endloop
  endfacet
  facet normal 0.904825 -0.425784 0
    outer loop
      vertex 18.2474 20.9635 0
      vertex 18.1404 20.7362 2
      vertex 18.1404 20.7362 0
    endloop
  endfacet
  facet normal 0.998027 -0.0627882 0
    outer loop
      vertex 18 20 2
      vertex 18.0158 20.2507 0
      vertex 18.0158 20.2507 2
    endloop
  endfacet
  facet normal 0.998027 -0.0627882 0
    outer loop
      vertex 18.0158 20.2507 0
      vertex 18 20 2
      vertex 18 20 0
    endloop
  endfacet
  facet normal 0.587785 -0.809017 0
    outer loop
      vertex 18.7252 21.541 0
      vertex 18.9283 21.6887 2
      vertex 18.7252 21.541 2
    endloop
  endfacet
  facet normal 0.587785 -0.809017 0
    outer loop
      vertex 18.9283 21.6887 2
      vertex 18.7252 21.541 0
      vertex 18.9283 21.6887 0
    endloop
  endfacet
  facet normal 0.684545 -0.72897 0
    outer loop
      vertex 18.5421 21.3691 0
      vertex 18.7252 21.541 2
      vertex 18.5421 21.3691 2
    endloop
  endfacet
  facet normal 0.684545 -0.72897 0
    outer loop
      vertex 18.7252 21.541 2
      vertex 18.5421 21.3691 0
      vertex 18.7252 21.541 0
    endloop
  endfacet
  facet normal 0.368124 -0.929777 0
    outer loop
      vertex 19.1484 21.8097 0
      vertex 19.382 21.9021 2
      vertex 19.1484 21.8097 2
    endloop
  endfacet
  facet normal 0.368124 -0.929777 0
    outer loop
      vertex 19.382 21.9021 2
      vertex 19.1484 21.8097 0
      vertex 19.382 21.9021 0
    endloop
  endfacet
  facet normal -0.770512 0.637425 0
    outer loop
      vertex 21.4579 18.6309 0
      vertex 21.618 18.8244 2
      vertex 21.618 18.8244 0
    endloop
  endfacet
  facet normal -0.770512 0.637425 0
    outer loop
      vertex 21.618 18.8244 2
      vertex 21.4579 18.6309 0
      vertex 21.4579 18.6309 2
    endloop
  endfacet
  facet normal -0.904828 0.425778 0
    outer loop
      vertex 21.7526 19.0365 0
      vertex 21.8596 19.2638 2
      vertex 21.8596 19.2638 0
    endloop
  endfacet
  facet normal -0.904828 0.425778 0
    outer loop
      vertex 21.8596 19.2638 2
      vertex 21.7526 19.0365 0
      vertex 21.7526 19.0365 2
    endloop
  endfacet
  facet normal -0.982286 0.187385 0
    outer loop
      vertex 21.9372 19.5026 0
      vertex 21.9842 19.7493 2
      vertex 21.9842 19.7493 0
    endloop
  endfacet
  facet normal -0.982286 0.187385 0
    outer loop
      vertex 21.9842 19.7493 2
      vertex 21.9372 19.5026 0
      vertex 21.9372 19.5026 2
    endloop
  endfacet
  facet normal 0.587785 0.809017 -0
    outer loop
      vertex 18.9283 18.3113 0
      vertex 18.7252 18.459 2
      vertex 18.9283 18.3113 2
    endloop
  endfacet
  facet normal 0.587785 0.809017 0
    outer loop
      vertex 18.7252 18.459 2
      vertex 18.9283 18.3113 0
      vertex 18.7252 18.459 0
    endloop
  endfacet
  facet normal 0.844329 0.535825 0
    outer loop
      vertex 18.382 18.8244 2
      vertex 18.2474 19.0365 0
      vertex 18.2474 19.0365 2
    endloop
  endfacet
  facet normal 0.844329 0.535825 0
    outer loop
      vertex 18.2474 19.0365 0
      vertex 18.382 18.8244 2
      vertex 18.382 18.8244 0
    endloop
  endfacet
  facet normal 0.684545 0.72897 -0
    outer loop
      vertex 18.7252 18.459 0
      vertex 18.5421 18.6309 2
      vertex 18.7252 18.459 2
    endloop
  endfacet
  facet normal 0.684545 0.72897 0
    outer loop
      vertex 18.5421 18.6309 2
      vertex 18.7252 18.459 0
      vertex 18.5421 18.6309 0
    endloop
  endfacet
  facet normal 0.998027 0.0627877 0
    outer loop
      vertex 18.0158 19.7493 2
      vertex 18 20 0
      vertex 18 20 2
    endloop
  endfacet
  facet normal 0.998027 0.0627877 0
    outer loop
      vertex 18 20 0
      vertex 18.0158 19.7493 2
      vertex 18.0158 19.7493 0
    endloop
  endfacet
  facet normal -0.844329 0.535825 0
    outer loop
      vertex 21.618 18.8244 0
      vertex 21.7526 19.0365 2
      vertex 21.7526 19.0365 0
    endloop
  endfacet
  facet normal -0.844329 0.535825 0
    outer loop
      vertex 21.7526 19.0365 2
      vertex 21.618 18.8244 0
      vertex 21.618 18.8244 2
    endloop
  endfacet
  facet normal -0.998027 0.0627877 0
    outer loop
      vertex 21.9842 19.7493 0
      vertex 22 20 2
      vertex 22 20 0
    endloop
  endfacet
  facet normal -0.998027 0.0627877 0
    outer loop
      vertex 22 20 2
      vertex 21.9842 19.7493 0
      vertex 21.9842 19.7493 2
    endloop
  endfacet
  facet normal 0.248685 0.968585 -0
    outer loop
      vertex 19.6252 18.0354 0
      vertex 19.382 18.0979 2
      vertex 19.6252 18.0354 2
    endloop
  endfacet
  facet normal 0.248685 0.968585 0
    outer loop
      vertex 19.382 18.0979 2
      vertex 19.6252 18.0354 0
      vertex 19.382 18.0979 0
    endloop
  endfacet
  facet normal 0.368131 0.929774 -0
    outer loop
      vertex 19.382 18.0979 0
      vertex 19.1484 18.1903 2
      vertex 19.382 18.0979 2
    endloop
  endfacet
  facet normal 0.368131 0.929774 0
    outer loop
      vertex 19.1484 18.1903 2
      vertex 19.382 18.0979 0
      vertex 19.1484 18.1903 0
    endloop
  endfacet
  facet normal 0.951056 0.309017 0
    outer loop
      vertex 18.1404 19.2638 2
      vertex 18.0628 19.5026 0
      vertex 18.0628 19.5026 2
    endloop
  endfacet
  facet normal 0.951056 0.309017 0
    outer loop
      vertex 18.0628 19.5026 0
      vertex 18.1404 19.2638 2
      vertex 18.1404 19.2638 0
    endloop
  endfacet
  facet normal 0.982288 0.187378 0
    outer loop
      vertex 18.0628 19.5026 2
      vertex 18.0158 19.7493 0
      vertex 18.0158 19.7493 2
    endloop
  endfacet
  facet normal 0.982288 0.187378 0
    outer loop
      vertex 18.0158 19.7493 0
      vertex 18.0628 19.5026 2
      vertex 18.0628 19.5026 0
    endloop
  endfacet
  facet normal 0.904825 0.425784 0
    outer loop
      vertex 18.2474 19.0365 2
      vertex 18.1404 19.2638 0
      vertex 18.1404 19.2638 2
    endloop
  endfacet
  facet normal 0.904825 0.425784 0
    outer loop
      vertex 18.1404 19.2638 0
      vertex 18.2474 19.0365 2
      vertex 18.2474 19.0365 0
    endloop
  endfacet
  facet normal -0.481755 0.876306 0
    outer loop
      vertex 21.0717 18.3113 0
      vertex 20.8516 18.1903 2
      vertex 21.0717 18.3113 2
    endloop
  endfacet
  facet normal -0.481755 0.876306 0
    outer loop
      vertex 20.8516 18.1903 2
      vertex 21.0717 18.3113 0
      vertex 20.8516 18.1903 0
    endloop
  endfacet
  facet normal -0.368131 0.929774 0
    outer loop
      vertex 20.8516 18.1903 0
      vertex 20.618 18.0979 2
      vertex 20.8516 18.1903 2
    endloop
  endfacet
  facet normal -0.368131 0.929774 0
    outer loop
      vertex 20.618 18.0979 2
      vertex 20.8516 18.1903 0
      vertex 20.618 18.0979 0
    endloop
  endfacet
  facet normal -0.684545 0.72897 0
    outer loop
      vertex 21.4579 18.6309 0
      vertex 21.2748 18.459 2
      vertex 21.4579 18.6309 2
    endloop
  endfacet
  facet normal -0.684545 0.72897 0
    outer loop
      vertex 21.2748 18.459 2
      vertex 21.4579 18.6309 0
      vertex 21.2748 18.459 0
    endloop
  endfacet
  facet normal -0.587785 0.809017 0
    outer loop
      vertex 21.2748 18.459 0
      vertex 21.0717 18.3113 2
      vertex 21.2748 18.459 2
    endloop
  endfacet
  facet normal -0.587785 0.809017 0
    outer loop
      vertex 21.0717 18.3113 2
      vertex 21.2748 18.459 0
      vertex 21.0717 18.3113 0
    endloop
  endfacet
  facet normal 0.481751 0.876308 -0
    outer loop
      vertex 19.1484 18.1903 0
      vertex 18.9283 18.3113 2
      vertex 19.1484 18.1903 2
    endloop
  endfacet
  facet normal 0.481751 0.876308 0
    outer loop
      vertex 18.9283 18.3113 2
      vertex 19.1484 18.1903 0
      vertex 18.9283 18.3113 0
    endloop
  endfacet
  facet normal 0.770516 0.637421 0
    outer loop
      vertex 18.5421 18.6309 2
      vertex 18.382 18.8244 0
      vertex 18.382 18.8244 2
    endloop
  endfacet
  facet normal 0.770516 0.637421 0
    outer loop
      vertex 18.382 18.8244 0
      vertex 18.5421 18.6309 2
      vertex 18.5421 18.6309 0
    endloop
  endfacet
  facet normal 0.125333 0.992115 -0
    outer loop
      vertex 19.8744 18.0039 0
      vertex 19.6252 18.0354 2
      vertex 19.8744 18.0039 2
    endloop
  endfacet
  facet normal 0.125333 0.992115 0
    outer loop
      vertex 19.6252 18.0354 2
      vertex 19.8744 18.0039 0
      vertex 19.6252 18.0354 0
    endloop
  endfacet
  facet normal 0 1 -0
    outer loop
      vertex 20.1256 18.0039 0
      vertex 19.8744 18.0039 2
      vertex 20.1256 18.0039 2
    endloop
  endfacet
  facet normal 0 1 0
    outer loop
      vertex 19.8744 18.0039 2
      vertex 20.1256 18.0039 0
      vertex 19.8744 18.0039 0
    endloop
  endfacet
endsolid OpenSCAD_Model
